<svg xmlns="http://www.w3.org/2000/svg" xmlns:xlink="http://www.w3.org/1999/xlink" version="1.1" width="256" height="256" viewBox="0 0 256 256" xml:space="preserve">
<g style="stroke: none; stroke-width: 0; stroke-dasharray: none; stroke-linecap: butt; stroke-linejoin: miter; stroke-miterlimit: 10; fill: none; fill-rule: nonzero; opacity: 1;" transform="translate(1.4065934065934016 1.4065934065934016) scale(2.81 2.81)">
	<path d="M 55.693 49.461 c -0.327 0 -0.658 -0.08 -0.965 -0.249 c -0.967 -0.534 -1.318 -1.751 -0.784 -2.718 l 1.907 -3.453 c 0.267 -0.481 0.719 -0.832 1.252 -0.97 l 8.428 -2.171 c 1.631 -0.496 3.05 -1.645 3.914 -3.21 l 0.111 -0.203 c 0.9 -1.629 1.099 -3.504 0.562 -5.282 c -0.538 -1.778 -1.744 -3.229 -3.396 -4.087 c -3.255 -1.688 -7.388 -0.371 -9.215 2.937 c -0.535 0.967 -1.75 1.318 -2.718 0.784 c -0.967 -0.534 -1.318 -1.75 -0.784 -2.717 c 2.866 -5.19 9.397 -7.233 14.561 -4.553 c 2.617 1.359 4.529 3.66 5.382 6.479 c 0.853 2.82 0.537 5.792 -0.887 8.371 l -0.111 0.202 c -1.373 2.487 -3.623 4.308 -6.339 5.131 l -7.674 1.979 l -1.49 2.698 C 57.081 49.088 56.398 49.461 55.693 49.461 z" style="stroke: none; stroke-width: 1; stroke-dasharray: none; stroke-linecap: butt; stroke-linejoin: miter; stroke-miterlimit: 10; fill: rgb(0,0,0); fill-rule: nonzero; opacity: 1;" transform=" matrix(1 0 0 1 0 0) " stroke-linecap="round"/>
	<path d="M 51.229 58.25 c -0.92 0 -1.819 -0.38 -2.47 -1.03 c -0.66 -0.65 -1.03 -1.55 -1.03 -2.47 c 0 -0.23 0.021 -0.46 0.07 -0.69 c 0.04 -0.22 0.11 -0.439 0.2 -0.649 c 0.08 -0.21 0.189 -0.42 0.319 -0.61 c 0.131 -0.19 0.271 -0.37 0.44 -0.53 c 1.3 -1.3 3.64 -1.3 4.94 0 c 0.17 0.16 0.31 0.34 0.439 0.53 s 0.23 0.4 0.32 0.61 s 0.149 0.43 0.2 0.649 c 0.05 0.23 0.069 0.46 0.069 0.69 c 0 0.92 -0.38 1.819 -1.029 2.47 c -0.16 0.16 -0.341 0.311 -0.53 0.44 c -0.19 0.12 -0.39 0.229 -0.601 0.319 c -0.21 0.09 -0.43 0.15 -0.659 0.2 C 51.689 58.22 51.46 58.25 51.229 58.25 z" style="stroke: none; stroke-width: 1; stroke-dasharray: none; stroke-linecap: butt; stroke-linejoin: miter; stroke-miterlimit: 10; fill: rgb(0,0,0); fill-rule: nonzero; opacity: 1;" transform=" matrix(1 0 0 1 0 0) " stroke-linecap="round"/>
	<path d="M 42.483 81.143 c -0.236 0 -0.475 -0.042 -0.705 -0.129 c -0.779 -0.293 -1.294 -1.039 -1.294 -1.871 V 67.269 h -6.133 c -1.104 0 -2 -0.896 -2 -2 V 17.708 c 0 -1.007 0.748 -1.856 1.747 -1.984 l 53.65 -6.851 c 0.601 -0.079 1.209 0.125 1.646 0.549 c 0.437 0.424 0.656 1.024 0.597 1.63 l -5.328 54.412 c -0.1 1.023 -0.961 1.805 -1.99 1.805 H 55.588 L 43.986 80.463 C 43.599 80.903 43.047 81.143 42.483 81.143 z M 36.351 63.269 h 6.133 c 1.104 0 2 0.896 2 2 v 8.57 l 8.698 -9.891 c 0.38 -0.433 0.927 -0.68 1.502 -0.68 h 26.175 l 4.906 -50.109 l -49.414 6.31 V 63.269 z" style="stroke: none; stroke-width: 1; stroke-dasharray: none; stroke-linecap: butt; stroke-linejoin: miter; stroke-miterlimit: 10; fill: rgb(0,0,0); fill-rule: nonzero; opacity: 1;" transform=" matrix(1 0 0 1 0 0) " stroke-linecap="round"/>
	<path d="M 29.447 81.143 c -0.564 0 -1.115 -0.239 -1.502 -0.68 l -6.759 -7.687 H 5.213 c -1.029 0 -1.89 -0.781 -1.99 -1.805 L 0.01 38.161 c -0.06 -0.606 0.16 -1.206 0.597 -1.63 c 0.437 -0.423 1.044 -0.626 1.646 -0.549 l 24.661 3.149 c 1.096 0.14 1.871 1.142 1.73 2.237 c -0.14 1.096 -1.144 1.876 -2.237 1.73 L 4.235 40.268 l 2.792 28.508 H 22.09 c 0.575 0 1.122 0.247 1.502 0.68 l 3.854 4.383 v -3.063 c 0 -1.104 0.896 -2 2 -2 h 4.904 c 1.104 0 2 0.896 2 2 s -0.896 2 -2 2 h -2.904 v 6.366 c 0 0.832 -0.516 1.578 -1.294 1.871 C 29.922 81.101 29.683 81.143 29.447 81.143 z" style="stroke: none; stroke-width: 1; stroke-dasharray: none; stroke-linecap: butt; stroke-linejoin: miter; stroke-miterlimit: 10; fill: rgb(0,0,0); fill-rule: nonzero; opacity: 1;" transform=" matrix(1 0 0 1 0 0) " stroke-linecap="round"/>
	<path d="M 13.79 59.64 c -0.23 0 -0.46 -0.02 -0.69 -0.07 c -0.22 -0.039 -0.44 -0.109 -0.65 -0.199 s -0.42 -0.19 -0.61 -0.32 s -0.37 -0.27 -0.53 -0.44 c -0.16 -0.159 -0.31 -0.34 -0.43 -0.529 c -0.13 -0.19 -0.24 -0.391 -0.32 -0.601 c -0.09 -0.21 -0.16 -0.43 -0.2 -0.66 c -0.05 -0.22 -0.07 -0.449 -0.07 -0.68 c 0 -0.92 0.37 -1.82 1.02 -2.47 c 0.16 -0.17 0.34 -0.311 0.53 -0.44 s 0.4 -0.229 0.61 -0.319 c 0.21 -0.091 0.43 -0.16 0.65 -0.2 c 0.45 -0.09 0.92 -0.09 1.37 0 c 0.22 0.04 0.44 0.109 0.66 0.2 c 0.21 0.09 0.41 0.189 0.6 0.319 s 0.37 0.271 0.53 0.44 c 0.65 0.649 1.03 1.55 1.03 2.47 c 0 0.23 -0.03 0.46 -0.07 0.68 c -0.05 0.23 -0.11 0.45 -0.2 0.66 c -0.09 0.21 -0.2 0.41 -0.32 0.601 c -0.13 0.189 -0.28 0.37 -0.44 0.529 C 15.61 59.27 14.71 59.64 13.79 59.64 z" style="stroke: none; stroke-width: 1; stroke-dasharray: none; stroke-linecap: butt; stroke-linejoin: miter; stroke-miterlimit: 10; fill: rgb(0,0,0); fill-rule: nonzero; opacity: 1;" transform=" matrix(1 0 0 1 0 0) " stroke-linecap="round"/>
	<path d="M 24.3 59.64 c -0.22 0 -0.45 -0.02 -0.68 -0.07 c -0.22 -0.039 -0.44 -0.109 -0.65 -0.199 c -0.22 -0.09 -0.42 -0.19 -0.61 -0.32 s -0.37 -0.27 -0.53 -0.44 c -0.16 -0.159 -0.31 -0.34 -0.44 -0.529 c -0.12 -0.19 -0.23 -0.391 -0.32 -0.601 c -0.08 -0.21 -0.15 -0.43 -0.2 -0.66 c -0.04 -0.22 -0.06 -0.449 -0.06 -0.68 c 0 -0.92 0.37 -1.82 1.02 -2.47 c 0.16 -0.17 0.34 -0.311 0.53 -0.44 S 22.75 53 22.97 52.91 c 0.21 -0.091 0.43 -0.16 0.65 -0.2 c 0.45 -0.09 0.92 -0.09 1.37 0 c 0.22 0.04 0.44 0.109 0.65 0.2 c 0.21 0.09 0.42 0.189 0.61 0.319 s 0.37 0.271 0.53 0.44 c 0.65 0.649 1.02 1.55 1.02 2.47 c 0 0.23 -0.02 0.46 -0.06 0.68 c -0.05 0.23 -0.12 0.45 -0.2 0.66 c -0.09 0.21 -0.2 0.41 -0.33 0.601 c -0.12 0.189 -0.27 0.37 -0.43 0.529 C 26.13 59.27 25.23 59.64 24.3 59.64 z" style="stroke: none; stroke-width: 1; stroke-dasharray: none; stroke-linecap: butt; stroke-linejoin: miter; stroke-miterlimit: 10; fill: rgb(0,0,0); fill-rule: nonzero; opacity: 1;" transform=" matrix(1 0 0 1 0 0) " stroke-linecap="round"/>
</g>
</svg>