<svg width="42" height="42" viewBox="0 0 42 42" fill="none" xmlns="http://www.w3.org/2000/svg">
<circle cx="21" cy="21" r="21" fill="#70B458"/>
<path d="M15.4483 22.3331L18.3867 24.0294L14.5143 17.168L6.63159 17.2466L9.57194 18.9419L7.21214 23.0261C6.97298 23.4396 6.72128 24.1094 7.07038 24.7147L11.0764 31.6479C11.7938 32.8902 13.0437 32.883 13.9487 32.883H20.3512V25.4525H13.6459L15.4483 22.3331ZM34.8716 21.3953L31.6699 15.8538L25.2313 19.5684L28.5835 25.3715L24.9801 25.371V21.9813L20.9717 28.7632L24.982 35.546L24.9811 32.1539H29.6983C30.1766 32.1539 30.8835 32.0368 31.2326 31.4325L35.2381 24.4993C35.9551 23.2559 35.3244 22.1789 34.8716 21.3953ZM21.3686 11.9538L23.1695 15.0736L20.2316 16.77L28.1138 16.8475L31.9862 9.98517L29.0473 11.682L26.689 7.59877C26.4493 7.18481 25.9941 6.63158 25.2964 6.63158H17.2859C15.85 6.63158 15.2313 7.71683 14.7795 8.50041L11.5778 14.0419L18.0164 17.7569L21.3686 11.9538Z" fill="white"/>
</svg>
